<svg version="1.1" xmlns="http://www.w3.org/2000/svg" xmlns:xlink="http://www.w3.org/1999/xlink" aria-hidden="true">

	<symbol id="icon-reset" viewBox="0 0 16 16">
		<path d="M11,3H5l3-3L11,3z M5,13l6,0.01L8,16L5,13z M3,11L0,8l3-3V11z M13,5l3,3l-3,3V5z M8,5C6.34,5,5,6.34,5,8
		s1.34,3,3,3s3-1.34,3-3S9.66,5,8,5z M8,10c-1.1,0-2-0.9-2-2s0.9-2,2-2s2,0.9,2,2S9.1,10,8,10z"/>
	</symbol>

	<symbol id="icon-plus" viewBox="0 0 16 16">
		<polygon points="13,7 9,7 9,3 7,3 7,7 3,7 3,9 7,9 7,13 9,13 9,9 13,9"/>
	</symbol>

	<symbol id="icon-minus" viewBox="0 0 16 16">
		<rect x="3" y="7" width="10" height="2"/>
	</symbol>

	<symbol id="icon-arrow-up" viewBox="0 0 8 4">
		<polygon points="8,4 0,4 4,0 "/>
	</symbol>

	<symbol id="icon-arrow-down" viewBox="0 0 8 4">
		<polygon points="0,0 8,0 4,4 "/>
	</symbol>

	<symbol id="icon-cross" viewBox="0 0 8 8">
		<path d="M8,0.809L7.191,0L4,3.191L0.809,0L0,0.809L3.191,4L0,7.191L0.809,8L4,4.809L7.191,8L8,7.191L4.809,4L8,0.809z"/>
	</symbol>

	<symbol id="icon-fullscreen" viewBox="0 0 16 16">
		<path d="M3,10H1v5h5v-2H3V10L3,10z M1,6h2V3h3V1H1V6L1,6z M13,13h-3v2h5v-5h-2V13L13,13z M10,1v2h3v3h2V1 H10L10,1z"/>
	</symbol>

	<symbol id="icon-fullscreen-exit" viewBox="0 0 16 16">
		<path d="M1,12h3v3h2v-5H1V12L1,12z M4,4H1v2h5V1H4V4L4,4z M10,15h2v-3h3v-2h-5V15L10,15z M12,4V1h-2v5h5V4H12L12,4z"/>
	</symbol>

	<symbol id="icon-magnifier" viewBox="0 0 16 16">
		<path d="M15.967,14.803l-4.253-4.285c0.848-1.103,1.364-2.477,1.379-3.971C13.093,2.937,10.156,0,6.546,0
		S0,2.937,0,6.546c0,3.609,2.937,6.546,6.546,6.546c1.477,0,2.84-0.507,3.94-1.349L14.772,16L15.967,14.803z M1.64,6.579
		c0-2.706,2.201-4.907,4.907-4.907c2.675,0,4.876,2.203,4.906,4.907c0,2.706-2.2,4.905-4.906,4.905S1.64,9.284,1.64,6.579z"/>
	</symbol>

	<symbol id="icon-filter" viewBox="0 0 16 16">
		<path d="M1,11h7v2H1V11z M8,3v2h7V3H8z M4,7h2V1H4v2H1v2h3V7z M12,9h-2v6h2v-2h3v-2h-3V9z"/>
	</symbol>

	<symbol id="icon-sidebar" viewBox="0 0 16 16">
		<polygon points="10,13 11,12 7,8 11,4 10,3 5,8 "/>
	</symbol>

</svg>