<svg version="1.1" xmlns="http://www.w3.org/2000/svg" xmlns:xlink="http://www.w3.org/1999/xlink" x="0px" y="0px"
	 width="40px" height="40px" viewBox="0 0 40 40" enable-background="new 0 0 40 40" xml:space="preserve">
<path fill="#FFFFFF" d="M16.04,21.06l2.66-2.66l-6.6-6.6c-1.47,1.47-1.47,3.85,0,5.32C12.1,17.12,16.04,21.06,16.04,21.06z
	 M22.43,19.35c1.44,0.67,3.46,0.2,4.96-1.3c1.8-1.8,2.15-4.38,0.77-5.76c-1.38-1.38-3.96-1.04-5.76,0.77
	c-1.5,1.5-1.97,3.52-1.3,4.96c-2.1,2.1-9.2,9.19-9.2,9.19l1.33,1.33l6.48-6.48l6.48,6.48l1.33-1.33l-6.48-6.48
	C21.04,20.74,22.43,19.35,22.43,19.35z"/>
</svg>
