<svg version="1.1" xmlns="http://www.w3.org/2000/svg" xmlns:xlink="http://www.w3.org/1999/xlink" x="0px" y="0px"
	 width="136px" height="32px" viewBox="0 0 136 32" enable-background="new 0 0 136 32" xml:space="preserve">
<polygon fill="#FFF" points="104.114,5.786 104.313,5.786 104.313,5.804 104.313,5.876 
	104.313,27.092 100.163,27.092 100.163,7.302 100.163,5.948 100.163,5.786 104.078,5.786 "/>
<polygon fill="#FFF" points="86.704,5.786 86.866,5.786 86.866,5.804 86.866,5.822 
	86.866,22.925 96.573,22.925 96.573,27.092 82.717,27.092 82.717,7.067 82.717,6.706 82.717,5.786 86.687,5.786 "/>
<polygon fill="#FFF" points="10.121,16.213 19.268,5.75 19.268,27.092 15.245,27.092 
	15.245,16.286 10.157,21.932 4.997,16.196 4.997,27.092 0.975,27.092 0.975,5.75 "/>
<path fill="#FFF" d="M124.446,25.288c-0.776,0.469-1.588,0.902-2.417,1.209
	c-0.759,0.289-1.534,0.451-2.31,0.523c-1.533,0.162-3.067,0.018-4.528-0.505c-1.371-0.487-2.635-1.227-3.717-2.219
	c-1.101-0.975-1.948-2.147-2.562-3.482c-0.632-1.372-0.938-2.833-0.938-4.33c0-1.479,0.271-2.905,0.848-4.257
	c0.56-1.317,1.371-2.49,2.399-3.501c1.047-1.01,2.292-1.768,3.663-2.273c1.479-0.559,3.067-0.721,4.637-0.631
	c0.667,0.054,1.316,0.145,1.948,0.343c0.56,0.162,1.118,0.379,1.659,0.649l0.613,0.307l-1.895,3.789l-0.613-0.271
	c-0.414-0.199-0.884-0.379-1.335-0.469c-0.414-0.073-0.848-0.09-1.28-0.09c-0.83,0-1.624,0.18-2.382,0.523
	c-0.758,0.343-1.443,0.812-2.038,1.389c-0.596,0.595-1.064,1.281-1.407,2.038c-0.343,0.758-0.523,1.57-0.523,2.4
	c0,0.83,0.181,1.641,0.541,2.4c0.343,0.775,0.83,1.461,1.426,2.039c0.595,0.595,1.281,1.063,2.038,1.425
	c0.74,0.324,1.534,0.504,2.346,0.504c0.307,0,0.595-0.018,0.902-0.036c0.252-0.018,0.505-0.072,0.757-0.145
	c0.271-0.071,0.542-0.18,0.812-0.288c0.344-0.162,0.668-0.343,0.993-0.541l0.54-0.306l2.49,3.427L124.446,25.288z"/>
<path fill="#FFF" d="M78.73,10.386c-0.234-0.793-0.577-1.587-1.1-2.255
	c-0.434-0.559-0.957-1.028-1.57-1.389c-0.541-0.307-1.137-0.542-1.75-0.686c-0.56-0.144-1.137-0.234-1.715-0.252
	c-0.486-0.036-0.955-0.054-1.442-0.054h-7.198v21.342h4.149v-5.556h3.085c0.487,0,0.975-0.019,1.443-0.054
	c0.577-0.037,1.154-0.127,1.714-0.253c0.613-0.145,1.191-0.379,1.75-0.704c0.613-0.343,1.137-0.812,1.552-1.389
	c0.505-0.649,0.848-1.443,1.082-2.219c0.307-1.047,0.397-2.184,0.397-3.266S79.037,11.433,78.73,10.386z M74.509,15.943
	c-0.27,0.451-0.632,0.83-1.118,1.046c-0.522,0.234-1.064,0.343-1.624,0.361c-0.631,0.018-1.263,0.036-1.895,0.036h-1.768V9.9h1.804
	c0.613,0,1.245,0.018,1.876,0.054c0.542,0.018,1.102,0.144,1.606,0.379c0.486,0.217,0.849,0.595,1.118,1.046
	c0.379,0.632,0.451,1.57,0.451,2.273C74.96,14.374,74.888,15.312,74.509,15.943z"/>
<path fill="#FFF" d="M59.968,10.386c-0.234-0.793-0.577-1.587-1.1-2.255
	c-0.434-0.559-0.938-1.028-1.57-1.389c-0.541-0.307-1.137-0.542-1.75-0.686c-0.559-0.144-1.137-0.234-1.714-0.252
	c-0.487-0.036-0.956-0.054-1.443-0.054h-7.198v21.342h4.149v-5.556h3.085c0.487,0,0.975-0.019,1.462-0.054
	c0.559-0.037,1.136-0.127,1.695-0.253c0.613-0.145,1.19-0.379,1.75-0.704c0.614-0.343,1.137-0.812,1.552-1.389
	c0.505-0.649,0.848-1.443,1.082-2.219c0.307-1.047,0.397-2.184,0.397-3.266S60.274,11.433,59.968,10.386z M55.746,15.943
	c-0.27,0.451-0.631,0.83-1.118,1.046c-0.505,0.234-1.064,0.343-1.624,0.361c-0.631,0.018-1.263,0.036-1.895,0.036h-1.768V9.9h1.805
	c0.631,0,1.244,0.018,1.876,0.054c0.541,0.018,1.101,0.144,1.605,0.379c0.487,0.217,0.849,0.595,1.118,1.046
	c0.379,0.632,0.469,1.57,0.469,2.273C56.215,14.374,56.125,15.312,55.746,15.943z"/>
<g>
	<path fill="#FFF" d="M128.604,6.47h-1.33V5.776h3.341V6.47h-1.317v3.392h-0.693V6.47z"/>
	<path fill="#FFF" d="M131.252,5.776l1.887,2.157l1.887-2.157v4.085h-0.693V7.59l-1.188,1.317l-1.199-1.336v2.291h-0.693V5.776z"
		/>
</g>
<polygon fill="#FFF" points="22.84,27.092 32.202,5.75 41.584,27.092 29.864,18.776 
	31.423,21.652 "/>
</svg>
