<?xml version="1.0" encoding="utf-8"?>
<svg version="1.1" xmlns="http://www.w3.org/2000/svg" xmlns:xlink="http://www.w3.org/1999/xlink" x="0px" y="0px"
	 width="42px" height="42px" viewBox="0 0 42 42" enable-background="new 0 0 42 42" xml:space="preserve">
<path fill="#FFFFFF" d="M21,0C9.42,0,0,9.42,0,21s9.42,21,21,21s21-9.42,21-21C42,9.42,32.58,0,21,0z M2.12,21
	c0-2.74,0.58-5.34,1.63-7.68l9,24.67C6.46,34.93,2.12,28.47,2.12,21z M21,39.88c-1.85,0-3.64-0.27-5.34-0.77l5.66-16.46l5.8,15.9
	c0.04,0.09,0.09,0.18,0.14,0.26C25.31,39.5,23.2,39.88,21,39.88z M23.6,12.15c1.14-0.06,2.16-0.18,2.16-0.18
	c1.02-0.12,0.9-1.61-0.12-1.56c0,0-3.06,0.24-5.03,0.24c-1.86,0-4.97-0.24-4.97-0.24c-1.02-0.06-1.14,1.5-0.12,1.56
	c0,0,0.96,0.12,1.98,0.18l2.94,8.06L16.3,32.6L9.43,12.15c1.14-0.06,2.16-0.18,2.16-0.18c1.02-0.12,0.9-1.61-0.12-1.56
	c0,0-3.06,0.24-5.03,0.24c-0.35,0-0.77-0.01-1.21-0.02C8.6,5.51,14.4,2.12,21,2.12c4.92,0,9.39,1.88,12.75,4.95
	c-0.08-0.01-0.16-0.01-0.24-0.01c-1.86,0-3.17,1.61-3.17,3.35c0,1.56,0.9,2.87,1.86,4.43c0.72,1.26,1.56,2.87,1.56,5.2
	c0,1.61-0.62,3.49-1.44,6.1l-1.88,6.29L23.6,12.15z M37.57,11.94c1.48,2.69,2.31,5.77,2.31,9.06c0,6.96-3.77,13.05-9.39,16.32
	l5.77-16.68c1.08-2.69,1.44-4.85,1.44-6.76C37.69,13.19,37.65,12.54,37.57,11.94z"/>
</svg>
