<svg xmlns="http://www.w3.org/2000/svg" xmlns:xlink="http://www.w3.org/1999/xlink" version="1.1" x="0px" y="0px" width="14px" height="14px" viewBox="0 0 14 14" enable-background="new 0 0 14 14" xml:space="preserve">
<path fill="#222" d="M5.384,14C2.967,14,1,12.033,1,9.616c0-2.073,1.473-3.879,3.502-4.294l0.395,1.925  c-1.119,0.23-1.931,1.226-1.931,2.369c0,1.333,1.085,2.418,2.418,2.418c1.263,0,2.322-0.984,2.412-2.241l1.961,0.14  C9.594,12.213,7.673,14,5.384,14z M13.585,9.915h-1.081l-1.691-3.337H8.009L7.493,4.025L5.565,4.415L6.4,8.544h3.206l1.691,3.337  h2.287V9.915z M7.866,1.685C7.866,0.756,7.11,0,6.18,0S4.495,0.756,4.495,1.685S5.251,3.371,6.18,3.371S7.866,2.615,7.866,1.685z"/>
</svg>